<svg width="270" height="54" viewBox="0 0 270 54" fill="none" xmlns="http://www.w3.org/2000/svg">
  <path
    d="M12.5099 6.61589V3.31217V0C12.5099 0 13.5492 0.498445 14.3942 0.973288C14.7926 1.19716 15.8625 1.79859 16.7718 2.30991C17.6811 2.82116 19.0699 3.59933 19.8579 4.03913C22.7183 5.6356 28.2987 8.7671 29.4247 9.40773C30.2915 9.90088 30.5571 10.0843 30.4938 10.1459C30.4475 10.1909 30.3863 10.2278 30.3579 10.2278C30.3002 10.2278 30.2157 10.2745 27.5733 11.7671C25.3041 13.049 24.7025 13.3705 24.5685 13.373C24.4808 13.3745 24.1771 13.2135 22.6869 12.3751C22.5657 12.3069 22.1854 12.0893 21.8419 11.8917C21.4984 11.6941 20.9528 11.3893 20.6295 11.2144C20.0884 10.9217 18.2995 9.92184 15.3389 8.25742C14.6923 7.89394 14.0475 7.53311 13.9061 7.45572C13.0638 6.99461 12.5099 6.61589 12.5099 6.61589Z M0.438599 13.3391V6.83862C0.438599 6.83862 1.81877 7.47088 4.2802 8.85729C5.432 9.506 6.75463 10.2444 7.21939 10.4982C7.68415 10.7519 8.09748 10.9837 8.13789 11.0132C8.17831 11.0427 9.23641 11.6395 10.4892 12.3393L14.4939 14.5764C16.9348 15.9403 20.3276 17.8344 22.393 18.9863C23.3629 19.5272 24.2578 20.0297 24.3816 20.1029L24.6066 20.2362L25.3735 19.8005C25.7953 19.5609 27.5954 18.553 29.3736 17.5606C32.7753 15.6621 40.4454 11.3645 41.5712 10.7261C41.9349 10.5199 42.34 10.3069 42.4713 10.2528L42.7102 10.1544V13.4724C42.7102 16.0407 42.6894 16.8067 42.6183 16.8624C42.5678 16.902 41.7825 17.3514 40.8732 17.861C39.9638 18.3706 37.6823 19.6516 35.8031 20.7077C32.1252 22.7746 30.3952 23.7448 26.9492 25.6722L24.7454 26.9049L24.4561 26.8206C24.1657 26.7359 22.3029 25.7044 11.1506 19.4523C7.83662 17.5946 3.69236 15.2732 3.69236 15.2732L0.438599 13.3391Z M19.5273 29.8754C21.5075 28.7696 23.3758 27.7133 23.6789 27.5281C23.982 27.3427 24.3044 27.1884 24.3953 27.185L24.5606 27.1788V28.7864C24.5606 30.3764 24.5588 30.3951 24.3953 30.4937C24.0665 30.6918 16.0678 35.1722 15.8386 35.2865C15.7092 35.3511 15.5477 35.404 15.4797 35.404C15.4117 35.404 14.7471 35.0446 14.0028 34.6054C12.8693 33.9366 12.6656 33.7913 12.7484 33.7107C12.8529 33.6091 13.7376 33.1085 19.5273 29.8754Z M0.459247 40.5481V37.2291V33.91L0.780574 34.0484C1.19919 34.2286 2.70942 35.0409 4.0965 35.8317C4.70271 36.1774 6.09148 36.9583 7.18265 37.5673L10.1218 39.2075C10.6472 39.5007 11.5896 40.0256 12.216 40.374C12.8424 40.7224 13.8216 41.2755 14.3921 41.603C14.9625 41.9306 15.4656 42.1987 15.51 42.1987C15.5545 42.1987 15.8985 42.0259 16.2743 41.8146C16.6502 41.6034 17.3375 41.2227 17.8017 40.9688C19.0898 40.2638 25.2696 36.8189 26.4561 36.1442C27.4596 35.5737 27.7527 35.4665 27.9076 35.613C27.9985 35.6989 30.0472 36.8471 30.3104 36.9596C30.4216 37.0071 30.5125 37.0766 30.5125 37.1141C30.5125 37.1781 30.1298 37.4781 30.0483 37.4781C30.0067 37.4781 28.2102 38.489 27.3529 38.9948C27.0498 39.1736 26.4215 39.5277 25.9568 39.7817C25.492 40.0357 24.6819 40.4849 24.1565 40.7801C23.6311 41.0752 22.5234 41.6954 21.6949 42.1582C20.8664 42.621 20.0398 43.0896 19.8579 43.1995C19.6761 43.3094 19.3206 43.5026 19.068 43.6288C18.8154 43.755 18.6088 43.883 18.6088 43.9132C18.6088 43.976 18.7789 44.0737 22.1086 45.924C23.4475 46.6681 24.5822 47.2768 24.63 47.2768C24.6778 47.2768 25.5994 46.781 26.6779 46.1751C29.8425 44.397 38.7496 39.4078 39.1096 39.2114C39.8928 38.7845 41.034 38.1419 41.6814 37.7633C42.0654 37.5388 42.4533 37.3325 42.5434 37.3049L42.7072 37.2549L42.7271 40.5597L42.7469 43.8645L42.453 44.0461C41.9662 44.3469 38.2615 46.4288 28.0142 52.1601C27.1049 52.6687 26.2452 53.1498 26.1037 53.2292L25.2882 53.6867C24.9812 53.859 24.6786 54 24.616 54C24.4742 54 23.9192 53.7173 22.8917 53.1221C22.4557 52.8694 21.5204 52.341 20.8132 51.9479C18.8955 50.8817 18.6871 50.7555 18.6501 50.6384C18.6315 50.5794 18.6097 49.8874 18.6016 49.1007C18.5858 47.5583 18.5722 47.4199 18.436 47.4199C18.3869 47.4199 17.7388 47.7578 16.9957 48.1709C16.2526 48.5839 15.5813 48.9219 15.5037 48.9219C15.3868 48.9219 14.8214 48.6409 14.3469 48.3472C14.1707 48.238 11.1054 46.5248 9.92315 45.8747C9.32885 45.5479 8.71713 45.2016 8.56378 45.1053C8.41035 45.0089 7.59047 44.5448 6.74177 44.0738C5.89308 43.6029 4.68617 42.9294 4.05976 42.5773C3.43334 42.2251 2.77203 41.8555 2.59016 41.756C2.0129 41.4403 1.76109 41.2986 1.1022 40.9188L0.459247 40.5481Z"
    fill="#FFFFFF"/>
  <path fill-rule="evenodd" clip-rule="evenodd"
        d="M59.9273 23.5847C59.9511 35.4105 59.9686 37.161 60.0687 37.6993C60.4448 39.7206 61.1199 41.0955 62.2958 42.2344C63.8218 43.7124 65.7627 44.3788 68.5383 44.3778C70.9568 44.377 72.7603 43.8408 74.28 42.6712C75.3104 41.8781 76.0649 40.7908 76.588 39.3455C77.1651 37.7506 77.1355 38.6068 77.1355 23.5311V10.1205L74.4365 10.1018L71.7376 10.083L71.7178 23.6196L71.698 37.1563L71.5323 37.5797C70.9587 39.0457 69.9583 39.6272 68.167 39.5361C67.551 39.5047 67.4044 39.4696 66.9236 39.2383C66.1285 38.8558 65.7495 38.3837 65.4248 37.3712C65.3228 37.0531 65.3074 35.5147 65.2872 23.549L65.2644 10.0847H62.5823H59.9L59.9273 23.5847ZM82.8811 10.1304C82.8181 10.1918 82.8144 39.9794 82.8771 42.1759L82.9266 43.9054L85.5053 43.9283C86.9236 43.9408 88.1103 43.9319 88.1424 43.9085C88.1745 43.8851 88.2211 41.2056 88.2461 37.9541L88.2915 32.0424L88.6286 32.0375C91.2747 31.9992 92.8695 31.8489 93.9623 31.5348C95.9504 30.9634 97.6982 29.5122 98.4761 27.7867C98.7418 27.1976 99.0898 26.0511 99.2362 25.2834C99.391 24.4718 99.3998 24.2385 99.3993 20.992C99.3987 17.715 99.391 17.5199 99.2306 16.7006C99.046 15.757 98.6595 14.5768 98.3173 13.9112C97.2839 11.9015 95.1911 10.5565 92.5364 10.1961C91.8687 10.1054 90.8992 10.0847 87.3221 10.0847C84.9054 10.0847 82.907 10.1053 82.8811 10.1304ZM103.919 26.9856V43.8941L106.507 43.932C107.931 43.9529 109.137 43.9543 109.189 43.9349C109.264 43.9069 109.283 42.7152 109.283 37.9711C109.283 34.7103 109.291 32.0411 109.301 32.0395C109.311 32.0379 110.097 32.0199 111.046 31.9994C114.02 31.9354 115.516 31.5928 117.015 30.6321C118.34 29.7824 119.257 28.605 119.794 27.0619C120.382 25.3758 120.452 24.7174 120.451 20.9232C120.45 18.304 120.432 17.8013 120.308 17.0225C119.878 14.3273 118.876 12.6045 117.054 11.4271C116.291 10.9341 116.156 10.8688 115.345 10.5986C113.939 10.1305 113.915 10.1287 108.677 10.1016L103.919 10.0771V26.9856ZM124.934 26.9996V43.9152L131.162 43.9209C134.587 43.9241 138.454 43.9565 138.454 43.9565L139.704 43.951L139.74 41.4682V39.0874L135.019 39.069L130.298 39.0506V34.1847V29.3188L134.174 29.3246C136.306 29.3278 138.343 29.3245 138.343 29.3245V26.9104L138.341 24.4967L134.32 24.4781L130.298 24.4597V19.704V14.9483H134.993C138.738 14.9483 139.695 14.9298 139.724 14.8568C139.744 14.8065 139.756 13.7203 139.75 12.4429L139.74 10.1205L132.337 10.1023L124.934 10.084V26.9996ZM145.215 27V43.9152H147.886H150.557L150.61 41.5533C150.639 40.2543 150.639 37.3244 150.61 35.0424L150.556 30.8934L151.467 30.9136L152.378 30.9337L152.619 31.8278C152.752 32.3195 153.007 33.2046 153.185 33.7947C154.04 36.6152 154.865 39.3723 155.273 40.7682C155.52 41.6139 155.832 42.66 155.966 43.0927L156.209 43.8794L158.905 43.8982C160.387 43.9086 161.601 43.8967 161.601 43.8719C161.601 43.7825 160.476 40.275 160.055 39.0516C159.668 37.9274 158.943 35.7239 157.638 31.7074C157.392 30.9528 157.192 30.2852 157.192 30.224C157.192 30.1564 157.376 30.0312 157.661 29.9055C158.337 29.6073 158.961 29.1736 159.576 28.5749C160.399 27.7739 160.809 27.1161 161.184 25.9986C161.647 24.6173 161.747 23.6567 161.747 20.635C161.747 17.4465 161.633 16.4717 161.068 14.8281C160.734 13.8571 160.279 13.1076 159.6 12.4072C158.386 11.1544 156.939 10.4602 154.994 10.1961C154.325 10.1053 153.349 10.0847 149.694 10.0847H145.215V27ZM92.1284 15.116C92.8796 15.3493 93.5003 15.9258 93.7838 16.6534C93.9155 16.9914 93.9535 17.3119 94.0144 18.596C94.0954 20.3048 94.0378 24.3731 93.9248 24.9193C93.7531 25.7497 93.2242 26.4402 92.4933 26.7883C92.1709 26.9418 91.9472 26.9802 91.0171 27.0418C90.4142 27.0818 89.5407 27.1048 89.0759 27.093L88.2309 27.0715L88.212 21.0993C88.2015 17.8146 88.2102 15.0832 88.2312 15.0295C88.2893 14.8814 91.6105 14.9552 92.1284 15.116ZM112.639 15.0257C114.048 15.2153 114.873 16.1123 115.029 17.6234C115.066 17.9813 115.085 19.7386 115.072 21.5284C115.048 24.7188 115.044 24.7921 114.877 25.2553C114.553 26.1523 113.864 26.7814 113.004 26.9646C112.796 27.0089 111.878 27.064 110.965 27.0869L109.303 27.1287L109.261 24.561C109.226 22.3742 109.233 15.3096 109.271 15.0377C109.286 14.9221 111.803 14.9132 112.639 15.0257ZM153.995 15.0227C155.283 15.2019 156.133 16.0684 156.322 17.393C156.364 17.693 156.382 19.1856 156.365 21.0208C156.337 23.9065 156.324 24.1711 156.188 24.5688C155.877 25.4734 155.369 25.9915 154.536 26.2522C154.066 26.3995 153.871 26.4146 152.354 26.4208L150.689 26.4278L150.67 20.6881L150.651 14.9483L152.066 14.9497C152.844 14.9505 153.712 14.9834 153.995 15.0227Z"
        fill="#FFFFFF"/>
  <path fill-rule="evenodd" clip-rule="evenodd"
        d="M168.568 11.9379C169.728 10.7229 170.942 10.1313 173.029 9.76496C173.612 9.66254 174.294 9.59502 174.786 9.59087C176.225 9.57871 178.206 9.97939 179.272 10.498C180.429 11.0606 181.415 12.0237 182.039 13.1999C182.951 14.9195 183.276 16.6426 183.277 19.7565L183.277 20.9527L180.65 20.9724C179.205 20.9832 177.982 20.9805 177.931 20.9665C177.861 20.9469 177.839 20.5053 177.839 19.0711C177.838 16.9797 177.78 16.4705 177.469 15.8361C177.024 14.9279 176.287 14.5239 174.968 14.465C173.531 14.4008 172.694 14.8235 172.136 15.8954C171.827 16.4896 171.741 17.1522 171.741 18.942C171.742 20.3095 171.765 20.6552 171.887 21.1534C172.278 22.7398 172.983 23.3138 175.951 24.462C177.933 25.2286 178.421 25.4404 179.108 25.8306C181.094 26.9576 182.259 28.3635 182.935 30.4482C183.214 31.3052 183.353 32.3495 183.401 33.9377C183.568 39.4876 181.785 42.8657 178.119 43.9449C175.927 44.5901 173.424 44.5641 171.305 43.8741C170.147 43.4968 169.444 43.0609 168.554 42.1677C167.545 41.1562 166.844 39.6631 166.516 37.8317C166.313 36.6972 166.216 32.8555 166.388 32.7496C166.442 32.7158 167.653 32.6878 169.077 32.6871L171.667 32.6861L171.668 34.6351C171.669 37.0458 171.761 37.6859 172.222 38.4541C172.454 38.8419 172.772 39.0969 173.357 39.3658C173.814 39.5753 173.878 39.5852 174.79 39.5859C175.986 39.5868 176.413 39.4481 177.014 38.8631C177.823 38.0756 178.026 37.2777 178.018 34.9033C178.012 33.0058 177.901 32.3358 177.459 31.5289C176.829 30.3769 176.318 30.0624 172.549 28.5017C170.63 27.7068 169.834 27.2391 168.859 26.3329C167.793 25.341 167 23.8954 166.675 22.351C166.18 20.0009 166.379 16.3198 167.104 14.3886C167.482 13.3816 167.971 12.5637 168.568 11.9379Z M188.053 10.1593L189.504 10.1399C190.303 10.1292 193.618 10.1205 196.871 10.1205H202.786L202.823 12.4808C202.843 13.7789 202.849 14.8656 202.836 14.8957C202.823 14.9257 200.697 14.949 198.111 14.9472C195.526 14.9456 193.384 14.9598 193.353 14.9788C193.321 14.9977 193.3 15.1999 193.307 15.4278C193.313 15.6558 193.324 17.7976 193.331 20.1874L193.344 24.5324H197.385H201.427L201.427 26.5529C201.428 27.6643 201.449 28.7424 201.474 28.949L201.521 29.3245H197.384H193.248L193.296 30.1649C193.322 30.6271 193.345 32.7619 193.347 34.9091C193.349 37.0561 193.37 38.8827 193.393 38.968L193.434 39.1231H198.129H202.823V41.1873C202.823 42.3227 202.844 43.401 202.87 43.5837L202.916 43.9159L195.503 43.8977L188.09 43.8794L188.072 27.0194L188.053 10.1593Z M207.599 10.157L214.818 10.1384C218.789 10.1282 222.619 10.1119 223.33 10.1023L224.623 10.0847L224.671 11.6404C224.698 12.4959 224.719 13.5902 224.72 14.0722L224.72 14.9483H221.743H218.766L218.769 29.4423C218.77 37.414 218.762 43.9444 218.751 43.9542C218.74 43.9641 217.542 43.9512 216.089 43.9258L213.447 43.8794L213.44 42.449C213.437 41.6622 213.427 35.1527 213.419 27.9834L213.404 14.9483H210.501C208.905 14.9483 207.598 14.9242 207.596 14.8947C207.589 14.74 207.583 10.4539 207.59 10.3175L207.599 10.157Z M229.349 10.1621L229.955 10.138C230.289 10.1247 231.477 10.1073 232.596 10.0993L234.631 10.0847L234.661 23.3702C234.692 37.7859 234.672 37.092 235.092 37.9821C235.195 38.2002 235.388 38.4991 235.52 38.6464C236.486 39.7166 238.758 39.91 239.952 39.0235C240.619 38.5284 241.056 37.7372 241.181 36.7994C241.219 36.514 241.249 30.6707 241.25 23.2341L241.253 10.1701L241.638 10.138C241.851 10.1204 243.041 10.1003 244.284 10.0935L246.543 10.0809V23.3082C246.543 35.9798 246.537 36.5741 246.402 37.4567C246.175 38.9398 245.947 39.6866 245.441 40.6037C244.552 42.2153 243.277 43.2616 241.483 43.8524C239.338 44.5587 236.737 44.5642 234.466 43.8674C233.714 43.6365 233.19 43.3803 232.582 42.9454C230.881 41.7295 229.916 39.9646 229.5 37.3093C229.352 36.3623 229.349 36.1062 229.349 23.2534V10.1621Z M251.926 10.1377L251.466 10.1631L251.485 27.0158L251.503 43.8685L254.13 43.8997L256.757 43.9309V37.9509V31.9708L258.061 31.9702C261.823 31.9685 263.794 31.4237 265.418 29.9364C266.483 28.9618 267.251 27.5496 267.586 25.9524C267.885 24.5291 267.926 23.957 267.926 21.2332C267.926 17.8237 267.812 16.5949 267.367 15.2222C266.668 13.0665 265.196 11.4789 263.193 10.7219C261.659 10.1422 260.984 10.0816 256.245 10.0985C254.122 10.1061 252.178 10.1237 251.926 10.1377ZM262.217 16.4298C261.853 15.7157 261.261 15.2538 260.466 15.0626C260.009 14.9528 258.633 14.894 257.4 14.9317L256.683 14.9535L256.694 19.582C256.699 22.1277 256.724 24.8704 256.749 25.6768L256.794 27.143L258.41 27.1193C260.087 27.0947 260.614 27.0235 261.174 26.7458C261.741 26.464 262.192 25.8522 262.464 24.9942C262.587 24.605 262.599 24.2621 262.599 21.0278C262.599 17.2391 262.593 17.1659 262.217 16.4298Z"
        fill="#FFFFFF"/>
</svg>
